{"title":"Pan (2015) English HDCAM 1GB x264 AAC ZippyMovieZ ExCluSivE","uid":12558037,"size":1034045217,"categoryP":"video","categoryS":"movies","magnet":"?xt=urn:btih:eb0a1e9764519c6cce9e8bfafc6d8b435301b03a&amp;dn=Pan+%282015%29+English+HDCAM+1GB+x264+AAC+ZippyMovieZ+ExCluSivE&amp;tr=udp%3A%2F%2Ftracker.leechers-paradise.org%3A6969&amp;tr=udp%3A%2F%2Fzer0day.ch%3A1337&amp;tr=udp%3A%2F%2Fopen.demonii.com%3A1337&amp;tr=udp%3A%2F%2Ftracker.coppersurfer.tk%3A6969&amp;tr=udp%3A%2F%2Fexodus.desync.com%3A6969","seeders":1,"leechers":0,"uploader":"desi11","files":3,"time":1444664997,"description":"Screens\r\n \nhttps://www.picbee.pw/image/Cr \nhttps://www.picbee.pw/image/X3 \nhttps://www.picbee.pw/image/X6 \nhttps://www.picbee.pw/image/XD \nhttps://www.picbee.pw/image/XJ\r\n\r\nINFO\r\n\r\nFormat : MPEG-4\r\nFormat profile : Base Media\r\nCodec ID : isom\r\nFile size : 983 MiB\r\nDuration : 1h 43mn\r\nOverall bit rate : 1 329 Kbps\r\nMovie name :\nWriting application : Lavf56.40.101\r\n\r\nVideo\r\nID : 1\r\nFormat : AVC\r\nFormat/Info : Advanced Video Codec\r\nFormat profile :   \r\nFormat settings, CABAC : Yes\r\nFormat settings, ReFrames : 1 frame\r\nCodec ID : avc1\r\nCodec ID/Info : Advanced Video Coding\r\nDuration : 1h 43mn\r\nBit rate : 1 195 Kbps\r\nWidth : 640 pixels\r\nHeight : 480 pixels\r\nDisplay aspect ratio : 4:3\r\nFrame rate mode : Constant\r\nFrame rate : 25.000 fps\r\nColor space : YUV\r\nChroma subsampling : 4:2:0\r\nBit depth : 8 bits\r\nScan type : Progressive\r\nBits/(Pixel*Frame) : 0.156\r\nStream size : 883 MiB (90%)\r\n\r\nAudio\r\nID : 2\r\nFormat : AAC\r\nFormat/Info : Advanced Audio Codec\r\nFormat profile : LC\r\nCodec ID : 40\r\nDuration : 1h 43mn\r\nBit rate mode : Constant\r\nBit rate : 129 Kbps\r\nChannel(s) : 2 channels\r\nChannel positions : Front: L R\r\nSampling rate : 44.1 KHz\r\nCompression mode : Lossy\r\nStream size : 95.3 MiB (10%)","torrent":{"xt":"urn:btih:eb0a1e9764519c6cce9e8bfafc6d8b435301b03a","amp;dn":"Pan+%282015%29+English+HDCAM+1GB+x264+AAC+ZippyMovieZ+ExCluSivE","amp;tr":["udp%3A%2F%2Ftracker.leechers-paradise.org%3A6969","udp%3A%2F%2Fzer0day.ch%3A1337","udp%3A%2F%2Fopen.demonii.com%3A1337","udp%3A%2F%2Ftracker.coppersurfer.tk%3A6969","udp%3A%2F%2Fexodus.desync.com%3A6969"],"infoHash":"eb0a1e9764519c6cce9e8bfafc6d8b435301b03a","infoHashBuffer":{"type":"Buffer","data":[235,10,30,151,100,81,156,108,206,158,139,250,252,109,139,67,83,1,176,58]},"announce":[],"urlList":[]}}